<svg xmlns="http://www.w3.org/2000/svg" width="97.927" height="90.087" viewBox="0 0 97.927 90.087">
  <path id="cypress_logo" d="M48.955,0C21.895,0,0,20.144,0,45.043A43.263,43.263,0,0,0,14.332,76.9,51.177,51.177,0,0,0,48.964,90.087c27.066,0,48.964-20.144,48.964-45.043S75.845,0,48.955,0ZM25.991,54.708c1.6,1.962,3.738,2.785,6.762,2.785a11.274,11.274,0,0,0,4.1-.656A37.148,37.148,0,0,0,41.3,54.71l4.992,6.551a22.407,22.407,0,0,1-14.066,4.587,23.586,23.586,0,0,1-11.039-2.455,17.078,17.078,0,0,1-7.124-7.207,23.582,23.582,0,0,1-2.492-10.978,24.124,24.124,0,0,1,2.489-10.973A17.878,17.878,0,0,1,21.19,26.7a21.1,21.1,0,0,1,10.859-2.62,21.963,21.963,0,0,1,7.66,1.146,23.509,23.509,0,0,1,6.586,3.6l-4.986,6.223a20.044,20.044,0,0,0-4.1-2.135,12.324,12.324,0,0,0-4.276-.653c-6.05,0-9.08,4.257-9.08,12.935-.177,4.429.713,7.537,2.138,9.5h0ZM74.955,64.862a23.536,23.536,0,0,1-8.193,11.629c-3.738,2.79-8.724,4.262-14.956,4.752L50.56,73.548c4.091-.5,7.121-1.314,9.08-2.628a22.191,22.191,0,0,0,2.138-1.962L47,25.389H59.284l8.55,32.591,9.083-32.591H88.844Z" fill="#3e3e41"/>
</svg>
