<svg xmlns="http://www.w3.org/2000/svg" width="262.016" height="66.079" viewBox="0 0 262.016 66.079">
  <g id="Html_Css_JS" transform="translate(-246.375 -1934)">
    <path id="html5" d="M0,2.25,5.128,60.409l23.011,7.67L51.3,60.409,56.425,2.25ZM45.287,21.044H18.279l.6,7.259h25.8l-2,21.806L28.3,54.075v.044h-.162l-14.5-4.011L12.754,38.97h7.009l.514,5.6L28.139,46.7l7.891-2.131.882-9.14H12.387L10.506,14.035H45.933l-.647,7.009Z" transform="translate(246.375 1932)" fill="#fd5b2e"/>
    <path id="Icon_simple-css3" data-name="Icon simple-css3" d="M2.25,0H58.67L53.538,59.146,30.4,65.83,7.387,59.143ZM48.165,12.1,12.755,12.1l.572,7.192,27.2.005-.685,7.45H22.005L22.65,33.8H39.259l-.983,9.663L30.457,45.67l-7.942-2.222L22.01,37.66H15l.779,10.574L30.46,52.905l14.435-4.2,3.27-36.6Z" transform="translate(346.75 1934)" fill="#0056e2"/>
    <g id="Gruppe_1" data-name="Gruppe 1" transform="translate(5)">
      <rect id="JS-Black" width="49" height="53" transform="translate(451 1938)"/>
      <path id="Icon_simple-javascript" data-name="Icon simple-javascript" d="M0,0H57.392V58.96H0ZM52.69,44.9c-.418-2.69-2.124-4.95-7.181-7.058-1.76-.848-3.716-1.437-4.3-2.8a2.976,2.976,0,0,1-.11-1.732c.359-1.587,2.188-2.064,3.623-1.621A3.93,3.93,0,0,1,47.059,33.9c2.473-1.661,2.473-1.661,4.2-2.764a10.116,10.116,0,0,0-1.4-1.916c-1.507-1.732-3.513-2.616-6.777-2.54l-1.686.219A7.671,7.671,0,0,0,37.3,29.365a7.847,7.847,0,0,0,1.361,10.984c3.264,2.506,8.037,3.056,8.647,5.417.574,2.874-2.08,3.8-4.7,3.464-1.939-.442-3.013-1.44-4.2-3.282l-4.376,2.582a9.928,9.928,0,0,0,1.937,2.724c4.161,4.314,14.563,4.093,16.431-2.466a8.531,8.531,0,0,0,.177-4.054l.11.165ZM31.209,27.1H25.833c0,4.761-.022,9.493-.022,14.261,0,3.027.151,5.805-.33,6.66-.789,1.693-2.822,1.476-3.745,1.179a4.684,4.684,0,0,1-1.985-2.1,2.112,2.112,0,0,0-.3-.482l-4.364,2.764a8.622,8.622,0,0,0,3.166,3.727,10.278,10.278,0,0,0,7.669.995,6.749,6.749,0,0,0,4.331-3.466c1.22-2.285.961-5.085.949-8.22.029-5.046,0-10.094,0-15.18l.01-.138Z" transform="translate(446 1934)" fill="#fcf200"/>
    </g>
  </g>
</svg>
