<svg xmlns="http://www.w3.org/2000/svg" width="82.013" height="56.758" viewBox="0 0 82.013 56.758">
  <g id="Icon_burgermenu" transform="translate(-4.5 -10.125)">
    <path id="Pfad_3" data-name="Pfad 3" d="M83.1,15.358H7.917c-1.879,0-3.417-1.177-3.417-2.616h0c0-1.439,1.538-2.616,3.417-2.616H83.1c1.879,0,3.417,1.177,3.417,2.616h0C86.513,14.18,84.975,15.358,83.1,15.358Z" transform="translate(0 0)" fill="#fff"/>
    <path id="Pfad_4" data-name="Pfad 4" d="M83.1,22.108H7.917c-1.879,0-3.417-1.177-3.417-2.616h0c0-1.439,1.538-2.616,3.417-2.616H83.1c1.879,0,3.417,1.177,3.417,2.616h0C86.513,20.93,84.975,22.108,83.1,22.108Z" transform="translate(0 19.012)" fill="#fff"/>
    <path id="Pfad_5" data-name="Pfad 5" d="M83.1,28.858H7.917c-1.879,0-3.417-1.177-3.417-2.616h0c0-1.439,1.538-2.616,3.417-2.616H83.1c1.879,0,3.417,1.177,3.417,2.616h0C86.513,27.68,84.975,28.858,83.1,28.858Z" transform="translate(0 38.025)" fill="#fff"/>
  </g>
</svg>
