<svg xmlns="http://www.w3.org/2000/svg" width="79.687" height="79.687" viewBox="0 0 79.687 79.687">
  <g id="Icon_JS" transform="translate(-1030.666 -3033.666)">
    <g id="Rechteck_10" data-name="Rechteck 10" transform="translate(1043 3042)" stroke="#707070" stroke-width="1">
      <rect width="67" height="71" stroke="none"/>
      <rect x="0.5" y="0.5" width="66" height="70" fill="none"/>
    </g>
    <path id="Icon_simple-javascript" data-name="Icon simple-javascript" d="M0,0H79.687V79.687H0ZM73.159,60.682c-.581-3.636-2.948-6.69-9.971-9.539C60.745,50,58.029,49.2,57.222,47.357a3.921,3.921,0,0,1-.153-2.341c.5-2.145,3.038-2.789,5.03-2.191a5.4,5.4,0,0,1,3.241,2.988c3.433-2.245,3.433-2.245,5.827-3.735a13.7,13.7,0,0,0-1.946-2.59c-2.092-2.341-4.878-3.536-9.41-3.433l-2.341.3a10.7,10.7,0,0,0-5.678,3.337c-3.785,4.287-2.693,11.757,1.889,14.845,4.532,3.387,11.16,4.13,12.006,7.321.8,3.885-2.889,5.13-6.528,4.682-2.693-.6-4.184-1.946-5.827-4.436l-6.076,3.49a13.427,13.427,0,0,0,2.689,3.682c5.777,5.83,20.221,5.532,22.814-3.334a11.238,11.238,0,0,0,.246-5.478l.153.222ZM43.333,36.626H35.869c0,6.435-.03,12.83-.03,19.274,0,4.091.209,7.846-.458,9-1.1,2.288-3.918,2-5.2,1.594a6.406,6.406,0,0,1-2.756-2.839A2.849,2.849,0,0,0,27,63.006l-6.06,3.735a11.744,11.744,0,0,0,4.4,5.037,14.612,14.612,0,0,0,10.648,1.345A9.326,9.326,0,0,0,42,68.438c1.693-3.088,1.335-6.873,1.318-11.11.04-6.82,0-13.643,0-20.516l.013-.186Z" transform="translate(1030.666 3033.666)" fill="#fcf200"/>
  </g>
</svg>
