<svg xmlns="http://www.w3.org/2000/svg" width="77.566" height="87.487" viewBox="0 0 77.566 87.487">
  <path id="node.js_icon" d="M38.815,87.772a6.8,6.8,0,0,1-3.368-.9L24.735,80.532c-1.6-.9-.816-1.215-.3-1.389a21.1,21.1,0,0,0,4.844-2.2.783.783,0,0,1,.8.069l8.229,4.878a1,1,0,0,0,.99,0L71.365,63.381a1.028,1.028,0,0,0,.486-.868V25.5a1.034,1.034,0,0,0-.5-.885L39.3,6.126a1,1,0,0,0-.99,0L6.282,24.632a1.013,1.013,0,0,0-.5.885V62.512a.958.958,0,0,0,.5.851l8.784,5.069c4.774,2.378,7.691-.417,7.691-3.246V28.66a.919.919,0,0,1,.937-.92h4.062a.93.93,0,0,1,.937.92V65.2c0,6.354-3.472,10-9.5,10-1.858,0-3.316,0-7.378-2.014l-8.4-4.844A6.751,6.751,0,0,1,.049,62.5V25.5a6.772,6.772,0,0,1,3.368-5.85L35.447,1.144a7.029,7.029,0,0,1,6.736,0L74.247,19.667a6.751,6.751,0,0,1,3.368,5.85V62.512a6.793,6.793,0,0,1-3.368,5.85L42.182,86.869a6.752,6.752,0,0,1-3.368.9ZM64.7,51.3c0-6.927-4.687-8.767-14.531-10.069-9.965-1.319-10.972-2-10.972-4.323,0-1.927.851-4.5,8.229-4.5,6.58,0,9.01,1.424,10.017,5.868a.929.929,0,0,0,.9.729h4.166a.906.906,0,0,0,.677-.3A.966.966,0,0,0,63.431,38c-.642-7.656-5.729-11.215-16.006-11.215-9.149,0-14.6,3.854-14.6,10.329,0,7.014,5.434,8.958,14.2,9.826,10.5,1.024,11.319,2.569,11.319,4.635,0,3.576-2.882,5.1-9.635,5.1-8.489,0-10.347-2.135-10.972-6.354a.919.919,0,0,0-.92-.781H32.669a.915.915,0,0,0-.92.92c0,5.4,2.934,11.84,16.978,11.84C58.866,62.287,64.7,58.277,64.7,51.3Z" transform="translate(-0.049 -0.285)" fill="#7fc732"/>
</svg>
