<svg xmlns="http://www.w3.org/2000/svg" width="92.927" height="79.353" viewBox="0 0 92.927 79.353">
  <path id="react_icon" d="M75.9,27.966q-1.47-.478-2.94-.9c.163-.655.309-1.311.454-1.966,2.232-10.556.762-19.04-4.193-21.839-4.773-2.674-12.56.106-20.437,6.8-.78.655-1.543,1.346-2.269,2.037-.49-.461-1-.921-1.506-1.364C36.753,3.577,28.477.566,23.522,3.382c-4.755,2.692-6.171,10.68-4.174,20.67.2.992.417,1.966.672,2.958-1.162.319-2.305.673-3.376,1.045C6.951,31.332,0,36.5,0,41.852c0,5.526,7.405,11.07,17.478,14.435.817.266,1.633.531,2.468.762-.272,1.063-.508,2.108-.726,3.188-1.906,9.83-.417,17.623,4.338,20.3,4.9,2.763,13.14-.071,21.163-6.925.635-.549,1.27-1.116,1.906-1.718.8.762,1.633,1.488,2.468,2.2,7.768,6.518,15.446,9.157,20.183,6.483,4.9-2.763,6.5-11.141,4.429-21.343q-.245-1.169-.544-2.391c.581-.159,1.143-.337,1.706-.514C85.34,52.94,92.927,47.467,92.927,41.852c0-5.367-7.151-10.574-17.025-13.886ZM51.346,12.929C58.1,7.19,64.4,4.941,67.263,6.553c3.067,1.718,4.247,8.661,2.323,17.783-.127.6-.254,1.187-.417,1.771a95.042,95.042,0,0,0-12.215-1.877,89.911,89.911,0,0,0-7.732-9.4c.708-.655,1.4-1.275,2.124-1.9Zm-21,38.116c.926,1.541,1.869,3.082,2.868,4.587A84.064,84.064,0,0,1,24.793,54.3a81.46,81.46,0,0,1,2.958-7.882c.835,1.559,1.688,3.1,2.6,4.623Zm-5.5-21.307c2.614-.567,5.39-1.027,8.276-1.382-.962,1.47-1.906,2.976-2.8,4.5-.889,1.506-1.761,3.046-2.577,4.605-1.143-2.639-2.105-5.225-2.9-7.722Zm4.973,12.2c1.2-2.444,2.5-4.835,3.884-7.191s2.868-4.641,4.429-6.89c2.722-.195,5.5-.3,8.331-.3s5.626.106,8.331.3q2.314,3.348,4.41,6.854t3.939,7.156q-1.824,3.666-3.92,7.226c-1.379,2.356-2.85,4.641-4.392,6.908-2.7.195-5.518.283-8.367.283s-5.608-.089-8.276-.248q-2.369-3.374-4.465-6.908c-1.4-2.356-2.686-4.747-3.9-7.191ZM62.6,51.009c.926-1.559,1.8-3.135,2.65-4.729a81,81,0,0,1,3.067,7.846,81.525,81.525,0,0,1-8.53,1.417C60.766,54.056,61.691,52.533,62.6,51.009Zm2.614-13.55c-.853-1.559-1.724-3.117-2.632-4.641q-1.334-2.258-2.777-4.463c2.922.354,5.717.832,8.331,1.417a77.194,77.194,0,0,1-2.922,7.687ZM46.5,17.534a78.225,78.225,0,0,1,5.372,6.341c-3.594-.159-7.205-.159-10.8,0C42.852,21.59,44.685,19.465,46.5,17.534ZM25.446,6.677c3.049-1.736,9.819.744,16.952,6.908.454.39.907.815,1.379,1.24a90.433,90.433,0,0,0-7.786,9.4,97.87,97.87,0,0,0-12.2,1.842c-.236-.9-.436-1.824-.635-2.745-1.706-8.573-.581-15.037,2.287-16.649ZM21,53.365c-.762-.213-1.506-.443-2.251-.691A37.391,37.391,0,0,1,7.314,47.148a7.928,7.928,0,0,1-3.412-5.3c0-3.241,5.735-7.386,14.012-10.2,1.035-.354,2.087-.673,3.14-.974A92.805,92.805,0,0,0,25.5,41.941,95.4,95.4,0,0,0,21,53.365ZM42.162,70.723a33.352,33.352,0,0,1-10.236,6.252,8.215,8.215,0,0,1-6.407.23c-2.886-1.629-4.084-7.882-2.45-16.295.2-.992.417-1.984.672-2.958a92.9,92.9,0,0,0,12.324,1.736A93.939,93.939,0,0,0,43.9,69.146C43.324,69.7,42.743,70.227,42.162,70.723Zm4.447-4.3a84.28,84.28,0,0,1-5.5-6.429c1.742.071,3.539.106,5.354.106,1.869,0,3.7-.035,5.518-.124a76.779,76.779,0,0,1-5.372,6.447Zm23.722,5.314a7.816,7.816,0,0,1-2.995,5.544c-2.886,1.629-9.039-.5-15.681-6.057-.762-.638-1.525-1.328-2.305-2.037a87.974,87.974,0,0,0,7.659-9.494,91.528,91.528,0,0,0,12.378-1.86c.181.726.345,1.452.49,2.161a31.525,31.525,0,0,1,.454,11.743Zm3.3-19.04c-.508.159-1.016.319-1.543.461a88.717,88.717,0,0,0-4.628-11.3A88.236,88.236,0,0,0,71.91,30.712c.944.266,1.851.549,2.722.832,8.458,2.834,14.393,7.049,14.393,10.273,0,3.472-6.334,7.953-15.391,10.875Zm-27.17-2.657a8.114,8.114,0,1,0-8.313-8.112A8.213,8.213,0,0,0,46.464,50.035Z" transform="translate(0 -2.251)" fill="#61dafb"/>
</svg>
